# xmcd
#
# Track frame offsets: 
#        150
#        23449
#        44533
#        63228
#        88076
#        111403
#        130332
#        148797
#        174818
#        194522
#
# Disc length: 2872 seconds
#
# Revision: 0
# Processed by: cddbd v1.5.2PL0 Copyright (c) Steve Scherf et al.
# Submitted via: ExactAudioCopy v0.99pb5
#
DISCID=890b360a
DTITLE=Tommy Keys - The Man In The Moon
DYEAR=2009
DGENRE=Blues
TTITLE0=Man In The Moon
TTITLE1=No Money
TTITLE2=Rock A Boogie Woogie
TTITLE3=You Can't Live On Love
TTITLE4=Ever Since You Went Away
TTITLE5=Born With The Blues
TTITLE6=Big Joe The Boogie Man
TTITLE7=Troubled Life Blues
TTITLE8=The Hadacol Bounce
TTITLE9=My Wish
EXTD=
EXTT0=
EXTT1=
EXTT2=
EXTT3=
EXTT4=
EXTT5=
EXTT6=
EXTT7=
EXTT8=
EXTT9=
PLAYORDER=
